<mxfile host="app.diagrams.net" modified="2023-09-22T14:56:49.004Z" agent="Mozilla/5.0 (Windows NT 10.0; Win64; x64) AppleWebKit/537.36 (KHTML, like Gecko) Chrome/117.0.0.0 Safari/537.36" etag="IEOdiPGRGDCi4OT1nuvU" version="21.8.0" type="device">
  <diagram name="Page-1" id="JdKJzPr5mm1eYJRtPAXu">
    <mxGraphModel dx="404" dy="662" grid="1" gridSize="10" guides="1" tooltips="1" connect="1" arrows="1" fold="1" page="1" pageScale="1" pageWidth="827" pageHeight="1169" math="0" shadow="0">
      <root>
        <mxCell id="0" />
        <mxCell id="1" parent="0" />
        <mxCell id="3eLyb3ZqCo6ELYgqfr6M-14" style="rounded=0;orthogonalLoop=1;jettySize=auto;html=1;" edge="1" parent="1" source="3eLyb3ZqCo6ELYgqfr6M-12" target="3eLyb3ZqCo6ELYgqfr6M-7">
          <mxGeometry relative="1" as="geometry" />
        </mxCell>
        <mxCell id="3eLyb3ZqCo6ELYgqfr6M-18" style="rounded=0;orthogonalLoop=1;jettySize=auto;html=1;" edge="1" parent="1" source="3eLyb3ZqCo6ELYgqfr6M-12" target="3eLyb3ZqCo6ELYgqfr6M-9">
          <mxGeometry relative="1" as="geometry" />
        </mxCell>
        <mxCell id="3eLyb3ZqCo6ELYgqfr6M-12" value="" style="rounded=0;whiteSpace=wrap;html=1;" vertex="1" parent="1">
          <mxGeometry x="30" y="90" width="120" height="510" as="geometry" />
        </mxCell>
        <mxCell id="3eLyb3ZqCo6ELYgqfr6M-15" style="rounded=0;orthogonalLoop=1;jettySize=auto;html=1;" edge="1" parent="1" source="3eLyb3ZqCo6ELYgqfr6M-2" target="3eLyb3ZqCo6ELYgqfr6M-8">
          <mxGeometry relative="1" as="geometry" />
        </mxCell>
        <mxCell id="3eLyb3ZqCo6ELYgqfr6M-2" value="Single Responsibility Rule" style="whiteSpace=wrap;html=1;aspect=fixed;" vertex="1" parent="1">
          <mxGeometry x="50" y="100" width="80" height="80" as="geometry" />
        </mxCell>
        <mxCell id="3eLyb3ZqCo6ELYgqfr6M-16" style="edgeStyle=orthogonalEdgeStyle;rounded=0;orthogonalLoop=1;jettySize=auto;html=1;dashed=1;dashPattern=8 8;" edge="1" parent="1" source="3eLyb3ZqCo6ELYgqfr6M-3" target="3eLyb3ZqCo6ELYgqfr6M-8">
          <mxGeometry relative="1" as="geometry" />
        </mxCell>
        <mxCell id="3eLyb3ZqCo6ELYgqfr6M-3" value="Open/Closed Principle" style="whiteSpace=wrap;html=1;aspect=fixed;" vertex="1" parent="1">
          <mxGeometry x="50" y="200" width="80" height="80" as="geometry" />
        </mxCell>
        <mxCell id="3eLyb3ZqCo6ELYgqfr6M-4" value="Liskov substituion principle" style="whiteSpace=wrap;html=1;aspect=fixed;" vertex="1" parent="1">
          <mxGeometry x="50" y="300" width="80" height="80" as="geometry" />
        </mxCell>
        <mxCell id="3eLyb3ZqCo6ELYgqfr6M-5" value="Interface Segregation Princpile" style="whiteSpace=wrap;html=1;aspect=fixed;" vertex="1" parent="1">
          <mxGeometry x="50" y="400" width="80" height="80" as="geometry" />
        </mxCell>
        <mxCell id="3eLyb3ZqCo6ELYgqfr6M-6" value="Dependency Inversion Principle" style="whiteSpace=wrap;html=1;aspect=fixed;" vertex="1" parent="1">
          <mxGeometry x="50" y="500" width="80" height="80" as="geometry" />
        </mxCell>
        <mxCell id="3eLyb3ZqCo6ELYgqfr6M-7" value="Composable" style="whiteSpace=wrap;html=1;aspect=fixed;" vertex="1" parent="1">
          <mxGeometry x="250" y="100" width="80" height="80" as="geometry" />
        </mxCell>
        <mxCell id="3eLyb3ZqCo6ELYgqfr6M-8" value="UNIX Philosophy" style="whiteSpace=wrap;html=1;aspect=fixed;" vertex="1" parent="1">
          <mxGeometry x="250" y="200" width="80" height="80" as="geometry" />
        </mxCell>
        <mxCell id="3eLyb3ZqCo6ELYgqfr6M-21" value="supports" style="edgeStyle=orthogonalEdgeStyle;rounded=0;orthogonalLoop=1;jettySize=auto;html=1;" edge="1" parent="1" source="3eLyb3ZqCo6ELYgqfr6M-9" target="3eLyb3ZqCo6ELYgqfr6M-19">
          <mxGeometry relative="1" as="geometry" />
        </mxCell>
        <mxCell id="3eLyb3ZqCo6ELYgqfr6M-9" value="Predictable" style="whiteSpace=wrap;html=1;aspect=fixed;" vertex="1" parent="1">
          <mxGeometry x="250" y="300" width="80" height="80" as="geometry" />
        </mxCell>
        <mxCell id="3eLyb3ZqCo6ELYgqfr6M-22" value="supports" style="rounded=0;orthogonalLoop=1;jettySize=auto;html=1;" edge="1" parent="1" source="3eLyb3ZqCo6ELYgqfr6M-10" target="3eLyb3ZqCo6ELYgqfr6M-19">
          <mxGeometry relative="1" as="geometry" />
        </mxCell>
        <mxCell id="3eLyb3ZqCo6ELYgqfr6M-10" value="Idiomatic" style="whiteSpace=wrap;html=1;aspect=fixed;" vertex="1" parent="1">
          <mxGeometry x="250" y="400" width="80" height="80" as="geometry" />
        </mxCell>
        <mxCell id="3eLyb3ZqCo6ELYgqfr6M-24" style="rounded=0;orthogonalLoop=1;jettySize=auto;html=1;" edge="1" parent="1" source="3eLyb3ZqCo6ELYgqfr6M-11" target="3eLyb3ZqCo6ELYgqfr6M-23">
          <mxGeometry relative="1" as="geometry" />
        </mxCell>
        <mxCell id="3eLyb3ZqCo6ELYgqfr6M-11" value="Domain Based" style="whiteSpace=wrap;html=1;aspect=fixed;" vertex="1" parent="1">
          <mxGeometry x="250" y="500" width="80" height="80" as="geometry" />
        </mxCell>
        <mxCell id="3eLyb3ZqCo6ELYgqfr6M-19" value="Developer" style="shape=umlActor;verticalLabelPosition=bottom;verticalAlign=top;html=1;outlineConnect=0;" vertex="1" parent="1">
          <mxGeometry x="420" y="310" width="30" height="60" as="geometry" />
        </mxCell>
        <mxCell id="3eLyb3ZqCo6ELYgqfr6M-23" value="Business&lt;br&gt;Person" style="shape=umlActor;verticalLabelPosition=bottom;verticalAlign=top;html=1;outlineConnect=0;" vertex="1" parent="1">
          <mxGeometry x="414" y="480" width="30" height="60" as="geometry" />
        </mxCell>
        <mxCell id="3eLyb3ZqCo6ELYgqfr6M-25" value="supports" style="curved=1;endArrow=classic;html=1;rounded=0;entryX=1;entryY=0.5;entryDx=0;entryDy=0;" edge="1" parent="1" source="3eLyb3ZqCo6ELYgqfr6M-7" target="3eLyb3ZqCo6ELYgqfr6M-8">
          <mxGeometry width="50" height="50" relative="1" as="geometry">
            <mxPoint x="240" y="370" as="sourcePoint" />
            <mxPoint x="290" y="320" as="targetPoint" />
            <Array as="points">
              <mxPoint x="410" y="160" />
            </Array>
          </mxGeometry>
        </mxCell>
      </root>
    </mxGraphModel>
  </diagram>
</mxfile>
